<?xml version="1.0" standalone="no"?>
<svg xmlns="http://www.w3.org/2000/svg" version="1.1" width="258" height="258">
	<!-- Created with https://api.qrserver.com (QR Code API, see goQR.me/api for information) -->
	<title>QR Code</title>
	<desc>https://open.spotify.com/playlist/4g9ckIgTW2Kz0IoaXl23D3?si=8ecf554bb96c4b69&amp;pt=8a90a6d6a787c6a3384128cbedb7af88</desc>
	<rect style="fill:rgb(255, 255, 255);fill-opacity:1" x="0" y="0" width="258" height="258" />
	<g id="elements">
		<path style="fill:rgb(0, 0, 0)" d="M 6,6 l 6,0 0,6 -6,0 z M 12,6 l 6,0 0,6 -6,0 z M 18,6 l 6,0 0,6 -6,0 z M 24,6 l 6,0 0,6 -6,0 z M 30,6 l 6,0 0,6 -6,0 z M 36,6 l 6,0 0,6 -6,0 z M 42,6 l 6,0 0,6 -6,0 z M 60,6 l 6,0 0,6 -6,0 z M 66,6 l 6,0 0,6 -6,0 z M 72,6 l 6,0 0,6 -6,0 z M 78,6 l 6,0 0,6 -6,0 z M 102,6 l 6,0 0,6 -6,0 z M 114,6 l 6,0 0,6 -6,0 z M 120,6 l 6,0 0,6 -6,0 z M 126,6 l 6,0 0,6 -6,0 z M 144,6 l 6,0 0,6 -6,0 z M 162,6 l 6,0 0,6 -6,0 z M 174,6 l 6,0 0,6 -6,0 z M 186,6 l 6,0 0,6 -6,0 z M 192,6 l 6,0 0,6 -6,0 z M 198,6 l 6,0 0,6 -6,0 z M 210,6 l 6,0 0,6 -6,0 z M 216,6 l 6,0 0,6 -6,0 z M 222,6 l 6,0 0,6 -6,0 z M 228,6 l 6,0 0,6 -6,0 z M 234,6 l 6,0 0,6 -6,0 z M 240,6 l 6,0 0,6 -6,0 z M 246,6 l 6,0 0,6 -6,0 z M 6,12 l 6,0 0,6 -6,0 z M 42,12 l 6,0 0,6 -6,0 z M 54,12 l 6,0 0,6 -6,0 z M 66,12 l 6,0 0,6 -6,0 z M 72,12 l 6,0 0,6 -6,0 z M 96,12 l 6,0 0,6 -6,0 z M 102,12 l 6,0 0,6 -6,0 z M 114,12 l 6,0 0,6 -6,0 z M 126,12 l 6,0 0,6 -6,0 z M 132,12 l 6,0 0,6 -6,0 z M 168,12 l 6,0 0,6 -6,0 z M 174,12 l 6,0 0,6 -6,0 z M 180,12 l 6,0 0,6 -6,0 z M 198,12 l 6,0 0,6 -6,0 z M 210,12 l 6,0 0,6 -6,0 z M 246,12 l 6,0 0,6 -6,0 z M 6,18 l 6,0 0,6 -6,0 z M 18,18 l 6,0 0,6 -6,0 z M 24,18 l 6,0 0,6 -6,0 z M 30,18 l 6,0 0,6 -6,0 z M 42,18 l 6,0 0,6 -6,0 z M 60,18 l 6,0 0,6 -6,0 z M 78,18 l 6,0 0,6 -6,0 z M 90,18 l 6,0 0,6 -6,0 z M 144,18 l 6,0 0,6 -6,0 z M 150,18 l 6,0 0,6 -6,0 z M 168,18 l 6,0 0,6 -6,0 z M 186,18 l 6,0 0,6 -6,0 z M 210,18 l 6,0 0,6 -6,0 z M 222,18 l 6,0 0,6 -6,0 z M 228,18 l 6,0 0,6 -6,0 z M 234,18 l 6,0 0,6 -6,0 z M 246,18 l 6,0 0,6 -6,0 z M 6,24 l 6,0 0,6 -6,0 z M 18,24 l 6,0 0,6 -6,0 z M 24,24 l 6,0 0,6 -6,0 z M 30,24 l 6,0 0,6 -6,0 z M 42,24 l 6,0 0,6 -6,0 z M 54,24 l 6,0 0,6 -6,0 z M 66,24 l 6,0 0,6 -6,0 z M 72,24 l 6,0 0,6 -6,0 z M 96,24 l 6,0 0,6 -6,0 z M 114,24 l 6,0 0,6 -6,0 z M 120,24 l 6,0 0,6 -6,0 z M 132,24 l 6,0 0,6 -6,0 z M 168,24 l 6,0 0,6 -6,0 z M 174,24 l 6,0 0,6 -6,0 z M 180,24 l 6,0 0,6 -6,0 z M 192,24 l 6,0 0,6 -6,0 z M 198,24 l 6,0 0,6 -6,0 z M 210,24 l 6,0 0,6 -6,0 z M 222,24 l 6,0 0,6 -6,0 z M 228,24 l 6,0 0,6 -6,0 z M 234,24 l 6,0 0,6 -6,0 z M 246,24 l 6,0 0,6 -6,0 z M 6,30 l 6,0 0,6 -6,0 z M 18,30 l 6,0 0,6 -6,0 z M 24,30 l 6,0 0,6 -6,0 z M 30,30 l 6,0 0,6 -6,0 z M 42,30 l 6,0 0,6 -6,0 z M 60,30 l 6,0 0,6 -6,0 z M 66,30 l 6,0 0,6 -6,0 z M 84,30 l 6,0 0,6 -6,0 z M 90,30 l 6,0 0,6 -6,0 z M 96,30 l 6,0 0,6 -6,0 z M 102,30 l 6,0 0,6 -6,0 z M 108,30 l 6,0 0,6 -6,0 z M 126,30 l 6,0 0,6 -6,0 z M 150,30 l 6,0 0,6 -6,0 z M 156,30 l 6,0 0,6 -6,0 z M 162,30 l 6,0 0,6 -6,0 z M 168,30 l 6,0 0,6 -6,0 z M 186,30 l 6,0 0,6 -6,0 z M 192,30 l 6,0 0,6 -6,0 z M 210,30 l 6,0 0,6 -6,0 z M 222,30 l 6,0 0,6 -6,0 z M 228,30 l 6,0 0,6 -6,0 z M 234,30 l 6,0 0,6 -6,0 z M 246,30 l 6,0 0,6 -6,0 z M 6,36 l 6,0 0,6 -6,0 z M 42,36 l 6,0 0,6 -6,0 z M 54,36 l 6,0 0,6 -6,0 z M 72,36 l 6,0 0,6 -6,0 z M 78,36 l 6,0 0,6 -6,0 z M 108,36 l 6,0 0,6 -6,0 z M 120,36 l 6,0 0,6 -6,0 z M 168,36 l 6,0 0,6 -6,0 z M 174,36 l 6,0 0,6 -6,0 z M 180,36 l 6,0 0,6 -6,0 z M 198,36 l 6,0 0,6 -6,0 z M 210,36 l 6,0 0,6 -6,0 z M 246,36 l 6,0 0,6 -6,0 z M 6,42 l 6,0 0,6 -6,0 z M 12,42 l 6,0 0,6 -6,0 z M 18,42 l 6,0 0,6 -6,0 z M 24,42 l 6,0 0,6 -6,0 z M 30,42 l 6,0 0,6 -6,0 z M 36,42 l 6,0 0,6 -6,0 z M 42,42 l 6,0 0,6 -6,0 z M 54,42 l 6,0 0,6 -6,0 z M 66,42 l 6,0 0,6 -6,0 z M 78,42 l 6,0 0,6 -6,0 z M 90,42 l 6,0 0,6 -6,0 z M 102,42 l 6,0 0,6 -6,0 z M 114,42 l 6,0 0,6 -6,0 z M 126,42 l 6,0 0,6 -6,0 z M 138,42 l 6,0 0,6 -6,0 z M 150,42 l 6,0 0,6 -6,0 z M 162,42 l 6,0 0,6 -6,0 z M 174,42 l 6,0 0,6 -6,0 z M 186,42 l 6,0 0,6 -6,0 z M 198,42 l 6,0 0,6 -6,0 z M 210,42 l 6,0 0,6 -6,0 z M 216,42 l 6,0 0,6 -6,0 z M 222,42 l 6,0 0,6 -6,0 z M 228,42 l 6,0 0,6 -6,0 z M 234,42 l 6,0 0,6 -6,0 z M 240,42 l 6,0 0,6 -6,0 z M 246,42 l 6,0 0,6 -6,0 z M 90,48 l 6,0 0,6 -6,0 z M 102,48 l 6,0 0,6 -6,0 z M 120,48 l 6,0 0,6 -6,0 z M 126,48 l 6,0 0,6 -6,0 z M 132,48 l 6,0 0,6 -6,0 z M 138,48 l 6,0 0,6 -6,0 z M 150,48 l 6,0 0,6 -6,0 z M 162,48 l 6,0 0,6 -6,0 z M 168,48 l 6,0 0,6 -6,0 z M 186,48 l 6,0 0,6 -6,0 z M 6,54 l 6,0 0,6 -6,0 z M 12,54 l 6,0 0,6 -6,0 z M 18,54 l 6,0 0,6 -6,0 z M 24,54 l 6,0 0,6 -6,0 z M 30,54 l 6,0 0,6 -6,0 z M 42,54 l 6,0 0,6 -6,0 z M 48,54 l 6,0 0,6 -6,0 z M 54,54 l 6,0 0,6 -6,0 z M 60,54 l 6,0 0,6 -6,0 z M 78,54 l 6,0 0,6 -6,0 z M 84,54 l 6,0 0,6 -6,0 z M 102,54 l 6,0 0,6 -6,0 z M 108,54 l 6,0 0,6 -6,0 z M 120,54 l 6,0 0,6 -6,0 z M 132,54 l 6,0 0,6 -6,0 z M 138,54 l 6,0 0,6 -6,0 z M 144,54 l 6,0 0,6 -6,0 z M 150,54 l 6,0 0,6 -6,0 z M 156,54 l 6,0 0,6 -6,0 z M 162,54 l 6,0 0,6 -6,0 z M 168,54 l 6,0 0,6 -6,0 z M 180,54 l 6,0 0,6 -6,0 z M 204,54 l 6,0 0,6 -6,0 z M 216,54 l 6,0 0,6 -6,0 z M 228,54 l 6,0 0,6 -6,0 z M 240,54 l 6,0 0,6 -6,0 z M 24,60 l 6,0 0,6 -6,0 z M 30,60 l 6,0 0,6 -6,0 z M 48,60 l 6,0 0,6 -6,0 z M 54,60 l 6,0 0,6 -6,0 z M 60,60 l 6,0 0,6 -6,0 z M 78,60 l 6,0 0,6 -6,0 z M 84,60 l 6,0 0,6 -6,0 z M 90,60 l 6,0 0,6 -6,0 z M 102,60 l 6,0 0,6 -6,0 z M 108,60 l 6,0 0,6 -6,0 z M 114,60 l 6,0 0,6 -6,0 z M 126,60 l 6,0 0,6 -6,0 z M 144,60 l 6,0 0,6 -6,0 z M 156,60 l 6,0 0,6 -6,0 z M 174,60 l 6,0 0,6 -6,0 z M 192,60 l 6,0 0,6 -6,0 z M 198,60 l 6,0 0,6 -6,0 z M 204,60 l 6,0 0,6 -6,0 z M 210,60 l 6,0 0,6 -6,0 z M 216,60 l 6,0 0,6 -6,0 z M 222,60 l 6,0 0,6 -6,0 z M 228,60 l 6,0 0,6 -6,0 z M 246,60 l 6,0 0,6 -6,0 z M 6,66 l 6,0 0,6 -6,0 z M 12,66 l 6,0 0,6 -6,0 z M 36,66 l 6,0 0,6 -6,0 z M 42,66 l 6,0 0,6 -6,0 z M 48,66 l 6,0 0,6 -6,0 z M 54,66 l 6,0 0,6 -6,0 z M 60,66 l 6,0 0,6 -6,0 z M 78,66 l 6,0 0,6 -6,0 z M 84,66 l 6,0 0,6 -6,0 z M 90,66 l 6,0 0,6 -6,0 z M 96,66 l 6,0 0,6 -6,0 z M 102,66 l 6,0 0,6 -6,0 z M 108,66 l 6,0 0,6 -6,0 z M 132,66 l 6,0 0,6 -6,0 z M 138,66 l 6,0 0,6 -6,0 z M 162,66 l 6,0 0,6 -6,0 z M 168,66 l 6,0 0,6 -6,0 z M 204,66 l 6,0 0,6 -6,0 z M 222,66 l 6,0 0,6 -6,0 z M 240,66 l 6,0 0,6 -6,0 z M 12,72 l 6,0 0,6 -6,0 z M 24,72 l 6,0 0,6 -6,0 z M 36,72 l 6,0 0,6 -6,0 z M 60,72 l 6,0 0,6 -6,0 z M 66,72 l 6,0 0,6 -6,0 z M 72,72 l 6,0 0,6 -6,0 z M 78,72 l 6,0 0,6 -6,0 z M 84,72 l 6,0 0,6 -6,0 z M 102,72 l 6,0 0,6 -6,0 z M 108,72 l 6,0 0,6 -6,0 z M 114,72 l 6,0 0,6 -6,0 z M 138,72 l 6,0 0,6 -6,0 z M 150,72 l 6,0 0,6 -6,0 z M 162,72 l 6,0 0,6 -6,0 z M 168,72 l 6,0 0,6 -6,0 z M 174,72 l 6,0 0,6 -6,0 z M 186,72 l 6,0 0,6 -6,0 z M 198,72 l 6,0 0,6 -6,0 z M 204,72 l 6,0 0,6 -6,0 z M 222,72 l 6,0 0,6 -6,0 z M 228,72 l 6,0 0,6 -6,0 z M 12,78 l 6,0 0,6 -6,0 z M 24,78 l 6,0 0,6 -6,0 z M 36,78 l 6,0 0,6 -6,0 z M 42,78 l 6,0 0,6 -6,0 z M 60,78 l 6,0 0,6 -6,0 z M 72,78 l 6,0 0,6 -6,0 z M 90,78 l 6,0 0,6 -6,0 z M 102,78 l 6,0 0,6 -6,0 z M 126,78 l 6,0 0,6 -6,0 z M 132,78 l 6,0 0,6 -6,0 z M 138,78 l 6,0 0,6 -6,0 z M 144,78 l 6,0 0,6 -6,0 z M 162,78 l 6,0 0,6 -6,0 z M 180,78 l 6,0 0,6 -6,0 z M 186,78 l 6,0 0,6 -6,0 z M 216,78 l 6,0 0,6 -6,0 z M 228,78 l 6,0 0,6 -6,0 z M 234,78 l 6,0 0,6 -6,0 z M 240,78 l 6,0 0,6 -6,0 z M 246,78 l 6,0 0,6 -6,0 z M 6,84 l 6,0 0,6 -6,0 z M 12,84 l 6,0 0,6 -6,0 z M 48,84 l 6,0 0,6 -6,0 z M 54,84 l 6,0 0,6 -6,0 z M 66,84 l 6,0 0,6 -6,0 z M 78,84 l 6,0 0,6 -6,0 z M 84,84 l 6,0 0,6 -6,0 z M 96,84 l 6,0 0,6 -6,0 z M 114,84 l 6,0 0,6 -6,0 z M 138,84 l 6,0 0,6 -6,0 z M 156,84 l 6,0 0,6 -6,0 z M 162,84 l 6,0 0,6 -6,0 z M 174,84 l 6,0 0,6 -6,0 z M 180,84 l 6,0 0,6 -6,0 z M 192,84 l 6,0 0,6 -6,0 z M 198,84 l 6,0 0,6 -6,0 z M 210,84 l 6,0 0,6 -6,0 z M 216,84 l 6,0 0,6 -6,0 z M 222,84 l 6,0 0,6 -6,0 z M 228,84 l 6,0 0,6 -6,0 z M 246,84 l 6,0 0,6 -6,0 z M 12,90 l 6,0 0,6 -6,0 z M 18,90 l 6,0 0,6 -6,0 z M 30,90 l 6,0 0,6 -6,0 z M 42,90 l 6,0 0,6 -6,0 z M 60,90 l 6,0 0,6 -6,0 z M 90,90 l 6,0 0,6 -6,0 z M 96,90 l 6,0 0,6 -6,0 z M 102,90 l 6,0 0,6 -6,0 z M 114,90 l 6,0 0,6 -6,0 z M 126,90 l 6,0 0,6 -6,0 z M 132,90 l 6,0 0,6 -6,0 z M 162,90 l 6,0 0,6 -6,0 z M 168,90 l 6,0 0,6 -6,0 z M 186,90 l 6,0 0,6 -6,0 z M 234,90 l 6,0 0,6 -6,0 z M 6,96 l 6,0 0,6 -6,0 z M 18,96 l 6,0 0,6 -6,0 z M 30,96 l 6,0 0,6 -6,0 z M 36,96 l 6,0 0,6 -6,0 z M 66,96 l 6,0 0,6 -6,0 z M 78,96 l 6,0 0,6 -6,0 z M 90,96 l 6,0 0,6 -6,0 z M 96,96 l 6,0 0,6 -6,0 z M 132,96 l 6,0 0,6 -6,0 z M 138,96 l 6,0 0,6 -6,0 z M 150,96 l 6,0 0,6 -6,0 z M 174,96 l 6,0 0,6 -6,0 z M 216,96 l 6,0 0,6 -6,0 z M 222,96 l 6,0 0,6 -6,0 z M 228,96 l 6,0 0,6 -6,0 z M 240,96 l 6,0 0,6 -6,0 z M 12,102 l 6,0 0,6 -6,0 z M 24,102 l 6,0 0,6 -6,0 z M 30,102 l 6,0 0,6 -6,0 z M 36,102 l 6,0 0,6 -6,0 z M 42,102 l 6,0 0,6 -6,0 z M 54,102 l 6,0 0,6 -6,0 z M 84,102 l 6,0 0,6 -6,0 z M 96,102 l 6,0 0,6 -6,0 z M 102,102 l 6,0 0,6 -6,0 z M 126,102 l 6,0 0,6 -6,0 z M 138,102 l 6,0 0,6 -6,0 z M 144,102 l 6,0 0,6 -6,0 z M 156,102 l 6,0 0,6 -6,0 z M 162,102 l 6,0 0,6 -6,0 z M 168,102 l 6,0 0,6 -6,0 z M 180,102 l 6,0 0,6 -6,0 z M 186,102 l 6,0 0,6 -6,0 z M 198,102 l 6,0 0,6 -6,0 z M 216,102 l 6,0 0,6 -6,0 z M 234,102 l 6,0 0,6 -6,0 z M 12,108 l 6,0 0,6 -6,0 z M 18,108 l 6,0 0,6 -6,0 z M 24,108 l 6,0 0,6 -6,0 z M 30,108 l 6,0 0,6 -6,0 z M 36,108 l 6,0 0,6 -6,0 z M 48,108 l 6,0 0,6 -6,0 z M 60,108 l 6,0 0,6 -6,0 z M 72,108 l 6,0 0,6 -6,0 z M 78,108 l 6,0 0,6 -6,0 z M 90,108 l 6,0 0,6 -6,0 z M 120,108 l 6,0 0,6 -6,0 z M 144,108 l 6,0 0,6 -6,0 z M 150,108 l 6,0 0,6 -6,0 z M 174,108 l 6,0 0,6 -6,0 z M 186,108 l 6,0 0,6 -6,0 z M 192,108 l 6,0 0,6 -6,0 z M 198,108 l 6,0 0,6 -6,0 z M 204,108 l 6,0 0,6 -6,0 z M 210,108 l 6,0 0,6 -6,0 z M 216,108 l 6,0 0,6 -6,0 z M 222,108 l 6,0 0,6 -6,0 z M 246,108 l 6,0 0,6 -6,0 z M 6,114 l 6,0 0,6 -6,0 z M 18,114 l 6,0 0,6 -6,0 z M 36,114 l 6,0 0,6 -6,0 z M 42,114 l 6,0 0,6 -6,0 z M 48,114 l 6,0 0,6 -6,0 z M 96,114 l 6,0 0,6 -6,0 z M 102,114 l 6,0 0,6 -6,0 z M 114,114 l 6,0 0,6 -6,0 z M 132,114 l 6,0 0,6 -6,0 z M 156,114 l 6,0 0,6 -6,0 z M 168,114 l 6,0 0,6 -6,0 z M 180,114 l 6,0 0,6 -6,0 z M 198,114 l 6,0 0,6 -6,0 z M 216,114 l 6,0 0,6 -6,0 z M 240,114 l 6,0 0,6 -6,0 z M 6,120 l 6,0 0,6 -6,0 z M 18,120 l 6,0 0,6 -6,0 z M 36,120 l 6,0 0,6 -6,0 z M 48,120 l 6,0 0,6 -6,0 z M 60,120 l 6,0 0,6 -6,0 z M 90,120 l 6,0 0,6 -6,0 z M 120,120 l 6,0 0,6 -6,0 z M 132,120 l 6,0 0,6 -6,0 z M 144,120 l 6,0 0,6 -6,0 z M 168,120 l 6,0 0,6 -6,0 z M 186,120 l 6,0 0,6 -6,0 z M 192,120 l 6,0 0,6 -6,0 z M 198,120 l 6,0 0,6 -6,0 z M 204,120 l 6,0 0,6 -6,0 z M 216,120 l 6,0 0,6 -6,0 z M 228,120 l 6,0 0,6 -6,0 z M 240,120 l 6,0 0,6 -6,0 z M 246,120 l 6,0 0,6 -6,0 z M 6,126 l 6,0 0,6 -6,0 z M 24,126 l 6,0 0,6 -6,0 z M 36,126 l 6,0 0,6 -6,0 z M 42,126 l 6,0 0,6 -6,0 z M 48,126 l 6,0 0,6 -6,0 z M 60,126 l 6,0 0,6 -6,0 z M 78,126 l 6,0 0,6 -6,0 z M 96,126 l 6,0 0,6 -6,0 z M 114,126 l 6,0 0,6 -6,0 z M 120,126 l 6,0 0,6 -6,0 z M 132,126 l 6,0 0,6 -6,0 z M 138,126 l 6,0 0,6 -6,0 z M 156,126 l 6,0 0,6 -6,0 z M 162,126 l 6,0 0,6 -6,0 z M 168,126 l 6,0 0,6 -6,0 z M 174,126 l 6,0 0,6 -6,0 z M 180,126 l 6,0 0,6 -6,0 z M 192,126 l 6,0 0,6 -6,0 z M 198,126 l 6,0 0,6 -6,0 z M 204,126 l 6,0 0,6 -6,0 z M 228,126 l 6,0 0,6 -6,0 z M 234,126 l 6,0 0,6 -6,0 z M 240,126 l 6,0 0,6 -6,0 z M 36,132 l 6,0 0,6 -6,0 z M 48,132 l 6,0 0,6 -6,0 z M 54,132 l 6,0 0,6 -6,0 z M 60,132 l 6,0 0,6 -6,0 z M 84,132 l 6,0 0,6 -6,0 z M 90,132 l 6,0 0,6 -6,0 z M 96,132 l 6,0 0,6 -6,0 z M 102,132 l 6,0 0,6 -6,0 z M 108,132 l 6,0 0,6 -6,0 z M 126,132 l 6,0 0,6 -6,0 z M 132,132 l 6,0 0,6 -6,0 z M 138,132 l 6,0 0,6 -6,0 z M 150,132 l 6,0 0,6 -6,0 z M 156,132 l 6,0 0,6 -6,0 z M 180,132 l 6,0 0,6 -6,0 z M 186,132 l 6,0 0,6 -6,0 z M 192,132 l 6,0 0,6 -6,0 z M 210,132 l 6,0 0,6 -6,0 z M 222,132 l 6,0 0,6 -6,0 z M 246,132 l 6,0 0,6 -6,0 z M 30,138 l 6,0 0,6 -6,0 z M 42,138 l 6,0 0,6 -6,0 z M 72,138 l 6,0 0,6 -6,0 z M 78,138 l 6,0 0,6 -6,0 z M 114,138 l 6,0 0,6 -6,0 z M 120,138 l 6,0 0,6 -6,0 z M 138,138 l 6,0 0,6 -6,0 z M 144,138 l 6,0 0,6 -6,0 z M 150,138 l 6,0 0,6 -6,0 z M 168,138 l 6,0 0,6 -6,0 z M 174,138 l 6,0 0,6 -6,0 z M 180,138 l 6,0 0,6 -6,0 z M 198,138 l 6,0 0,6 -6,0 z M 210,138 l 6,0 0,6 -6,0 z M 216,138 l 6,0 0,6 -6,0 z M 222,138 l 6,0 0,6 -6,0 z M 228,138 l 6,0 0,6 -6,0 z M 234,138 l 6,0 0,6 -6,0 z M 6,144 l 6,0 0,6 -6,0 z M 48,144 l 6,0 0,6 -6,0 z M 72,144 l 6,0 0,6 -6,0 z M 102,144 l 6,0 0,6 -6,0 z M 114,144 l 6,0 0,6 -6,0 z M 120,144 l 6,0 0,6 -6,0 z M 126,144 l 6,0 0,6 -6,0 z M 132,144 l 6,0 0,6 -6,0 z M 138,144 l 6,0 0,6 -6,0 z M 150,144 l 6,0 0,6 -6,0 z M 162,144 l 6,0 0,6 -6,0 z M 186,144 l 6,0 0,6 -6,0 z M 204,144 l 6,0 0,6 -6,0 z M 210,144 l 6,0 0,6 -6,0 z M 240,144 l 6,0 0,6 -6,0 z M 12,150 l 6,0 0,6 -6,0 z M 24,150 l 6,0 0,6 -6,0 z M 36,150 l 6,0 0,6 -6,0 z M 42,150 l 6,0 0,6 -6,0 z M 48,150 l 6,0 0,6 -6,0 z M 54,150 l 6,0 0,6 -6,0 z M 60,150 l 6,0 0,6 -6,0 z M 72,150 l 6,0 0,6 -6,0 z M 84,150 l 6,0 0,6 -6,0 z M 90,150 l 6,0 0,6 -6,0 z M 102,150 l 6,0 0,6 -6,0 z M 108,150 l 6,0 0,6 -6,0 z M 120,150 l 6,0 0,6 -6,0 z M 126,150 l 6,0 0,6 -6,0 z M 132,150 l 6,0 0,6 -6,0 z M 138,150 l 6,0 0,6 -6,0 z M 144,150 l 6,0 0,6 -6,0 z M 150,150 l 6,0 0,6 -6,0 z M 156,150 l 6,0 0,6 -6,0 z M 162,150 l 6,0 0,6 -6,0 z M 168,150 l 6,0 0,6 -6,0 z M 174,150 l 6,0 0,6 -6,0 z M 180,150 l 6,0 0,6 -6,0 z M 192,150 l 6,0 0,6 -6,0 z M 204,150 l 6,0 0,6 -6,0 z M 228,150 l 6,0 0,6 -6,0 z M 234,150 l 6,0 0,6 -6,0 z M 240,150 l 6,0 0,6 -6,0 z M 246,150 l 6,0 0,6 -6,0 z M 36,156 l 6,0 0,6 -6,0 z M 48,156 l 6,0 0,6 -6,0 z M 54,156 l 6,0 0,6 -6,0 z M 66,156 l 6,0 0,6 -6,0 z M 72,156 l 6,0 0,6 -6,0 z M 78,156 l 6,0 0,6 -6,0 z M 84,156 l 6,0 0,6 -6,0 z M 108,156 l 6,0 0,6 -6,0 z M 114,156 l 6,0 0,6 -6,0 z M 120,156 l 6,0 0,6 -6,0 z M 126,156 l 6,0 0,6 -6,0 z M 138,156 l 6,0 0,6 -6,0 z M 144,156 l 6,0 0,6 -6,0 z M 162,156 l 6,0 0,6 -6,0 z M 174,156 l 6,0 0,6 -6,0 z M 186,156 l 6,0 0,6 -6,0 z M 192,156 l 6,0 0,6 -6,0 z M 198,156 l 6,0 0,6 -6,0 z M 204,156 l 6,0 0,6 -6,0 z M 210,156 l 6,0 0,6 -6,0 z M 216,156 l 6,0 0,6 -6,0 z M 222,156 l 6,0 0,6 -6,0 z M 240,156 l 6,0 0,6 -6,0 z M 246,156 l 6,0 0,6 -6,0 z M 12,162 l 6,0 0,6 -6,0 z M 18,162 l 6,0 0,6 -6,0 z M 36,162 l 6,0 0,6 -6,0 z M 42,162 l 6,0 0,6 -6,0 z M 54,162 l 6,0 0,6 -6,0 z M 84,162 l 6,0 0,6 -6,0 z M 90,162 l 6,0 0,6 -6,0 z M 96,162 l 6,0 0,6 -6,0 z M 108,162 l 6,0 0,6 -6,0 z M 126,162 l 6,0 0,6 -6,0 z M 132,162 l 6,0 0,6 -6,0 z M 150,162 l 6,0 0,6 -6,0 z M 156,162 l 6,0 0,6 -6,0 z M 162,162 l 6,0 0,6 -6,0 z M 168,162 l 6,0 0,6 -6,0 z M 174,162 l 6,0 0,6 -6,0 z M 186,162 l 6,0 0,6 -6,0 z M 210,162 l 6,0 0,6 -6,0 z M 216,162 l 6,0 0,6 -6,0 z M 228,162 l 6,0 0,6 -6,0 z M 234,162 l 6,0 0,6 -6,0 z M 12,168 l 6,0 0,6 -6,0 z M 24,168 l 6,0 0,6 -6,0 z M 30,168 l 6,0 0,6 -6,0 z M 48,168 l 6,0 0,6 -6,0 z M 84,168 l 6,0 0,6 -6,0 z M 96,168 l 6,0 0,6 -6,0 z M 102,168 l 6,0 0,6 -6,0 z M 108,168 l 6,0 0,6 -6,0 z M 114,168 l 6,0 0,6 -6,0 z M 120,168 l 6,0 0,6 -6,0 z M 138,168 l 6,0 0,6 -6,0 z M 162,168 l 6,0 0,6 -6,0 z M 174,168 l 6,0 0,6 -6,0 z M 216,168 l 6,0 0,6 -6,0 z M 240,168 l 6,0 0,6 -6,0 z M 246,168 l 6,0 0,6 -6,0 z M 18,174 l 6,0 0,6 -6,0 z M 42,174 l 6,0 0,6 -6,0 z M 54,174 l 6,0 0,6 -6,0 z M 90,174 l 6,0 0,6 -6,0 z M 96,174 l 6,0 0,6 -6,0 z M 102,174 l 6,0 0,6 -6,0 z M 120,174 l 6,0 0,6 -6,0 z M 132,174 l 6,0 0,6 -6,0 z M 156,174 l 6,0 0,6 -6,0 z M 180,174 l 6,0 0,6 -6,0 z M 186,174 l 6,0 0,6 -6,0 z M 198,174 l 6,0 0,6 -6,0 z M 204,174 l 6,0 0,6 -6,0 z M 216,174 l 6,0 0,6 -6,0 z M 228,174 l 6,0 0,6 -6,0 z M 234,174 l 6,0 0,6 -6,0 z M 240,174 l 6,0 0,6 -6,0 z M 6,180 l 6,0 0,6 -6,0 z M 18,180 l 6,0 0,6 -6,0 z M 24,180 l 6,0 0,6 -6,0 z M 36,180 l 6,0 0,6 -6,0 z M 48,180 l 6,0 0,6 -6,0 z M 54,180 l 6,0 0,6 -6,0 z M 78,180 l 6,0 0,6 -6,0 z M 96,180 l 6,0 0,6 -6,0 z M 108,180 l 6,0 0,6 -6,0 z M 114,180 l 6,0 0,6 -6,0 z M 132,180 l 6,0 0,6 -6,0 z M 174,180 l 6,0 0,6 -6,0 z M 192,180 l 6,0 0,6 -6,0 z M 210,180 l 6,0 0,6 -6,0 z M 222,180 l 6,0 0,6 -6,0 z M 228,180 l 6,0 0,6 -6,0 z M 240,180 l 6,0 0,6 -6,0 z M 246,180 l 6,0 0,6 -6,0 z M 6,186 l 6,0 0,6 -6,0 z M 30,186 l 6,0 0,6 -6,0 z M 36,186 l 6,0 0,6 -6,0 z M 42,186 l 6,0 0,6 -6,0 z M 48,186 l 6,0 0,6 -6,0 z M 66,186 l 6,0 0,6 -6,0 z M 90,186 l 6,0 0,6 -6,0 z M 96,186 l 6,0 0,6 -6,0 z M 102,186 l 6,0 0,6 -6,0 z M 132,186 l 6,0 0,6 -6,0 z M 138,186 l 6,0 0,6 -6,0 z M 144,186 l 6,0 0,6 -6,0 z M 150,186 l 6,0 0,6 -6,0 z M 156,186 l 6,0 0,6 -6,0 z M 168,186 l 6,0 0,6 -6,0 z M 174,186 l 6,0 0,6 -6,0 z M 180,186 l 6,0 0,6 -6,0 z M 186,186 l 6,0 0,6 -6,0 z M 198,186 l 6,0 0,6 -6,0 z M 210,186 l 6,0 0,6 -6,0 z M 6,192 l 6,0 0,6 -6,0 z M 18,192 l 6,0 0,6 -6,0 z M 30,192 l 6,0 0,6 -6,0 z M 48,192 l 6,0 0,6 -6,0 z M 54,192 l 6,0 0,6 -6,0 z M 78,192 l 6,0 0,6 -6,0 z M 90,192 l 6,0 0,6 -6,0 z M 96,192 l 6,0 0,6 -6,0 z M 114,192 l 6,0 0,6 -6,0 z M 132,192 l 6,0 0,6 -6,0 z M 150,192 l 6,0 0,6 -6,0 z M 162,192 l 6,0 0,6 -6,0 z M 174,192 l 6,0 0,6 -6,0 z M 204,192 l 6,0 0,6 -6,0 z M 210,192 l 6,0 0,6 -6,0 z M 216,192 l 6,0 0,6 -6,0 z M 222,192 l 6,0 0,6 -6,0 z M 228,192 l 6,0 0,6 -6,0 z M 246,192 l 6,0 0,6 -6,0 z M 6,198 l 6,0 0,6 -6,0 z M 18,198 l 6,0 0,6 -6,0 z M 24,198 l 6,0 0,6 -6,0 z M 30,198 l 6,0 0,6 -6,0 z M 42,198 l 6,0 0,6 -6,0 z M 84,198 l 6,0 0,6 -6,0 z M 90,198 l 6,0 0,6 -6,0 z M 96,198 l 6,0 0,6 -6,0 z M 108,198 l 6,0 0,6 -6,0 z M 114,198 l 6,0 0,6 -6,0 z M 132,198 l 6,0 0,6 -6,0 z M 138,198 l 6,0 0,6 -6,0 z M 144,198 l 6,0 0,6 -6,0 z M 156,198 l 6,0 0,6 -6,0 z M 162,198 l 6,0 0,6 -6,0 z M 168,198 l 6,0 0,6 -6,0 z M 180,198 l 6,0 0,6 -6,0 z M 198,198 l 6,0 0,6 -6,0 z M 204,198 l 6,0 0,6 -6,0 z M 210,198 l 6,0 0,6 -6,0 z M 216,198 l 6,0 0,6 -6,0 z M 222,198 l 6,0 0,6 -6,0 z M 234,198 l 6,0 0,6 -6,0 z M 246,198 l 6,0 0,6 -6,0 z M 54,204 l 6,0 0,6 -6,0 z M 60,204 l 6,0 0,6 -6,0 z M 72,204 l 6,0 0,6 -6,0 z M 78,204 l 6,0 0,6 -6,0 z M 96,204 l 6,0 0,6 -6,0 z M 102,204 l 6,0 0,6 -6,0 z M 126,204 l 6,0 0,6 -6,0 z M 138,204 l 6,0 0,6 -6,0 z M 144,204 l 6,0 0,6 -6,0 z M 150,204 l 6,0 0,6 -6,0 z M 162,204 l 6,0 0,6 -6,0 z M 186,204 l 6,0 0,6 -6,0 z M 192,204 l 6,0 0,6 -6,0 z M 198,204 l 6,0 0,6 -6,0 z M 222,204 l 6,0 0,6 -6,0 z M 234,204 l 6,0 0,6 -6,0 z M 240,204 l 6,0 0,6 -6,0 z M 246,204 l 6,0 0,6 -6,0 z M 6,210 l 6,0 0,6 -6,0 z M 12,210 l 6,0 0,6 -6,0 z M 18,210 l 6,0 0,6 -6,0 z M 24,210 l 6,0 0,6 -6,0 z M 30,210 l 6,0 0,6 -6,0 z M 36,210 l 6,0 0,6 -6,0 z M 42,210 l 6,0 0,6 -6,0 z M 54,210 l 6,0 0,6 -6,0 z M 78,210 l 6,0 0,6 -6,0 z M 96,210 l 6,0 0,6 -6,0 z M 102,210 l 6,0 0,6 -6,0 z M 114,210 l 6,0 0,6 -6,0 z M 138,210 l 6,0 0,6 -6,0 z M 168,210 l 6,0 0,6 -6,0 z M 174,210 l 6,0 0,6 -6,0 z M 180,210 l 6,0 0,6 -6,0 z M 192,210 l 6,0 0,6 -6,0 z M 198,210 l 6,0 0,6 -6,0 z M 210,210 l 6,0 0,6 -6,0 z M 222,210 l 6,0 0,6 -6,0 z M 234,210 l 6,0 0,6 -6,0 z M 6,216 l 6,0 0,6 -6,0 z M 42,216 l 6,0 0,6 -6,0 z M 60,216 l 6,0 0,6 -6,0 z M 72,216 l 6,0 0,6 -6,0 z M 90,216 l 6,0 0,6 -6,0 z M 120,216 l 6,0 0,6 -6,0 z M 132,216 l 6,0 0,6 -6,0 z M 144,216 l 6,0 0,6 -6,0 z M 162,216 l 6,0 0,6 -6,0 z M 168,216 l 6,0 0,6 -6,0 z M 174,216 l 6,0 0,6 -6,0 z M 192,216 l 6,0 0,6 -6,0 z M 198,216 l 6,0 0,6 -6,0 z M 222,216 l 6,0 0,6 -6,0 z M 240,216 l 6,0 0,6 -6,0 z M 6,222 l 6,0 0,6 -6,0 z M 18,222 l 6,0 0,6 -6,0 z M 24,222 l 6,0 0,6 -6,0 z M 30,222 l 6,0 0,6 -6,0 z M 42,222 l 6,0 0,6 -6,0 z M 54,222 l 6,0 0,6 -6,0 z M 60,222 l 6,0 0,6 -6,0 z M 66,222 l 6,0 0,6 -6,0 z M 78,222 l 6,0 0,6 -6,0 z M 96,222 l 6,0 0,6 -6,0 z M 114,222 l 6,0 0,6 -6,0 z M 132,222 l 6,0 0,6 -6,0 z M 144,222 l 6,0 0,6 -6,0 z M 174,222 l 6,0 0,6 -6,0 z M 180,222 l 6,0 0,6 -6,0 z M 186,222 l 6,0 0,6 -6,0 z M 198,222 l 6,0 0,6 -6,0 z M 204,222 l 6,0 0,6 -6,0 z M 210,222 l 6,0 0,6 -6,0 z M 216,222 l 6,0 0,6 -6,0 z M 222,222 l 6,0 0,6 -6,0 z M 234,222 l 6,0 0,6 -6,0 z M 6,228 l 6,0 0,6 -6,0 z M 18,228 l 6,0 0,6 -6,0 z M 24,228 l 6,0 0,6 -6,0 z M 30,228 l 6,0 0,6 -6,0 z M 42,228 l 6,0 0,6 -6,0 z M 54,228 l 6,0 0,6 -6,0 z M 60,228 l 6,0 0,6 -6,0 z M 90,228 l 6,0 0,6 -6,0 z M 96,228 l 6,0 0,6 -6,0 z M 102,228 l 6,0 0,6 -6,0 z M 132,228 l 6,0 0,6 -6,0 z M 150,228 l 6,0 0,6 -6,0 z M 180,228 l 6,0 0,6 -6,0 z M 192,228 l 6,0 0,6 -6,0 z M 198,228 l 6,0 0,6 -6,0 z M 6,234 l 6,0 0,6 -6,0 z M 18,234 l 6,0 0,6 -6,0 z M 24,234 l 6,0 0,6 -6,0 z M 30,234 l 6,0 0,6 -6,0 z M 42,234 l 6,0 0,6 -6,0 z M 54,234 l 6,0 0,6 -6,0 z M 66,234 l 6,0 0,6 -6,0 z M 72,234 l 6,0 0,6 -6,0 z M 78,234 l 6,0 0,6 -6,0 z M 84,234 l 6,0 0,6 -6,0 z M 108,234 l 6,0 0,6 -6,0 z M 114,234 l 6,0 0,6 -6,0 z M 138,234 l 6,0 0,6 -6,0 z M 144,234 l 6,0 0,6 -6,0 z M 150,234 l 6,0 0,6 -6,0 z M 162,234 l 6,0 0,6 -6,0 z M 168,234 l 6,0 0,6 -6,0 z M 180,234 l 6,0 0,6 -6,0 z M 210,234 l 6,0 0,6 -6,0 z M 222,234 l 6,0 0,6 -6,0 z M 234,234 l 6,0 0,6 -6,0 z M 6,240 l 6,0 0,6 -6,0 z M 42,240 l 6,0 0,6 -6,0 z M 54,240 l 6,0 0,6 -6,0 z M 72,240 l 6,0 0,6 -6,0 z M 90,240 l 6,0 0,6 -6,0 z M 102,240 l 6,0 0,6 -6,0 z M 114,240 l 6,0 0,6 -6,0 z M 120,240 l 6,0 0,6 -6,0 z M 126,240 l 6,0 0,6 -6,0 z M 132,240 l 6,0 0,6 -6,0 z M 138,240 l 6,0 0,6 -6,0 z M 144,240 l 6,0 0,6 -6,0 z M 150,240 l 6,0 0,6 -6,0 z M 168,240 l 6,0 0,6 -6,0 z M 198,240 l 6,0 0,6 -6,0 z M 204,240 l 6,0 0,6 -6,0 z M 210,240 l 6,0 0,6 -6,0 z M 216,240 l 6,0 0,6 -6,0 z M 240,240 l 6,0 0,6 -6,0 z M 6,246 l 6,0 0,6 -6,0 z M 12,246 l 6,0 0,6 -6,0 z M 18,246 l 6,0 0,6 -6,0 z M 24,246 l 6,0 0,6 -6,0 z M 30,246 l 6,0 0,6 -6,0 z M 36,246 l 6,0 0,6 -6,0 z M 42,246 l 6,0 0,6 -6,0 z M 54,246 l 6,0 0,6 -6,0 z M 66,246 l 6,0 0,6 -6,0 z M 72,246 l 6,0 0,6 -6,0 z M 78,246 l 6,0 0,6 -6,0 z M 84,246 l 6,0 0,6 -6,0 z M 90,246 l 6,0 0,6 -6,0 z M 102,246 l 6,0 0,6 -6,0 z M 108,246 l 6,0 0,6 -6,0 z M 114,246 l 6,0 0,6 -6,0 z M 120,246 l 6,0 0,6 -6,0 z M 126,246 l 6,0 0,6 -6,0 z M 150,246 l 6,0 0,6 -6,0 z M 156,246 l 6,0 0,6 -6,0 z M 180,246 l 6,0 0,6 -6,0 z M 192,246 l 6,0 0,6 -6,0 z M 204,246 l 6,0 0,6 -6,0 z M 216,246 l 6,0 0,6 -6,0 z M 228,246 l 6,0 0,6 -6,0 z M 234,246 l 6,0 0,6 -6,0 z " />
	</g>
</svg>
